<svg fill="none" height="56" viewBox="0 0 56 56" width="56" xmlns="http://www.w3.org/2000/svg"><path d="m53 28c0-13.8071-11.1929-25-25-25s-25 11.1929-25 25 11.1929 25 25 25v3c-15.464 0-28-12.536-28-28s12.536-28 28-28 28 12.536 28 28-12.536 28-28 28v-3c13.8071 0 25-11.1929 25-25z"/><path d="m38.6066 27.3936c.5857.5857.5857 1.5353 0 2.121l-9.5459 9.5459c-.5858.5858-1.5353.5858-2.1211 0l-9.5459-9.5459c-.5858-.5857-.5858-1.5353 0-2.121.5858-.5858 1.5353-.5858 2.1211 0l6.9853 6.9853v-16.3789c0-.8284.6716-1.5 1.5-1.5s1.5.6716 1.5 1.5v16.3789l6.9854-6.9853c.5858-.5858 1.5353-.5858 2.1211 0z"/></svg>